<svg width="135" height="26" viewBox="0 0 135 26" fill="none" xmlns="http://www.w3.org/2000/svg">
<path d="M24.5025 3.53304L23.1223 10.5233C23.1195 10.5372 23.1205 10.5517 23.1253 10.5652C23.1299 10.5786 23.1382 10.5905 23.1491 10.5997C23.16 10.6089 23.1731 10.615 23.1871 10.6174C23.2012 10.6198 23.2157 10.6183 23.229 10.6132L24.7045 10.0571C24.7081 10.0776 24.7116 10.0988 24.7149 10.1185C25.0692 12.3511 24.8096 14.638 23.9639 16.7343C23.1181 18.8307 21.718 20.6575 19.9136 22.0191C18.1091 23.3807 15.9683 24.2258 13.7203 24.464C11.4724 24.7022 9.202 24.3244 7.1523 23.3711C9.30155 24.5631 11.7424 25.1273 14.1967 24.9996C16.651 24.8719 19.0201 24.0574 21.034 22.6488C23.048 21.2402 24.6258 19.2944 25.5877 17.0327C26.5495 14.7712 26.8569 12.2848 26.4745 9.85717L28.1739 9.99511C28.1884 9.99624 28.2027 9.99345 28.2157 9.98701C28.2286 9.98059 28.2395 9.97077 28.2474 9.9586C28.2552 9.94643 28.2595 9.93237 28.2599 9.91793C28.2603 9.9035 28.2568 9.88922 28.2497 9.87661L24.65 3.50886C24.6419 3.49473 24.6297 3.4834 24.615 3.4764C24.6003 3.46939 24.5839 3.46705 24.5679 3.46968C24.5518 3.47231 24.5369 3.4798 24.5252 3.49111C24.5135 3.50244 24.5055 3.51708 24.5025 3.53304Z" fill="#FDFDFF"/>
<path d="M21.8665 18.1165C20.7516 19.5344 19.3198 20.6713 17.6862 21.4359C16.0525 22.2004 14.2623 22.5714 12.4594 22.5191C10.6564 22.4667 8.89074 21.9925 7.30418 21.1344C5.71762 20.2762 4.35427 19.0582 3.32357 17.5779C2.29286 16.0978 1.62348 14.3965 1.36912 12.6107C1.11478 10.825 1.28255 9.00452 1.85898 7.29536C2.43541 5.5862 3.40444 4.03595 4.68832 2.769C5.9722 1.50205 7.53518 0.553682 9.25185 0C7.03976 0.543675 5.02501 1.69815 3.43745 3.33173C1.84988 4.96532 0.753428 7.01222 0.273163 9.23893C-0.207102 11.4657 -0.0518389 13.7825 0.721242 15.9252C1.49433 18.068 2.8541 19.9503 4.64543 21.3574C6.43677 22.7646 8.58754 23.6399 10.8524 23.8836C13.1173 24.1272 15.405 23.7294 17.4547 22.7354C19.5043 21.7415 21.2333 20.1915 22.4445 18.2622C23.6556 16.333 24.3001 14.1021 24.3045 11.8242C24.1418 14.1188 23.2922 16.3113 21.8665 18.1165Z" fill="white"/>
<path d="M19.3298 5.93181C18.6189 6.83722 17.8105 7.66164 16.9192 8.39017C16.9102 8.39758 16.9028 8.40692 16.8978 8.41749C16.8929 8.42806 16.8903 8.43962 16.8903 8.45132V19.7621C16.8903 19.8531 16.8613 19.9417 16.8077 20.0152C16.754 20.0888 16.6784 20.1433 16.5918 20.171L16.5825 20.174C16.5183 20.1946 16.4502 20.1997 16.3836 20.1889C16.317 20.1783 16.2538 20.1518 16.1994 20.1121C16.1449 20.0723 16.1006 20.0203 16.07 19.9602C16.0394 19.9 16.0236 19.8335 16.0236 19.7661V9.22097C16.0236 9.20646 16.0197 9.19224 16.0122 9.17984C16.0047 9.16742 15.9939 9.15731 15.981 9.1506C15.9682 9.14388 15.9538 9.14084 15.9393 9.14177C15.9249 9.14271 15.9109 9.14759 15.899 9.15591C14.7188 9.96855 13.4321 10.6145 12.0754 11.0756C12.0598 11.0808 12.0462 11.0909 12.0365 11.1044C12.0269 11.1178 12.0216 11.1339 12.0216 11.1505V20.2854C12.0216 20.3488 12.0075 20.4115 11.9804 20.4687C11.9533 20.526 11.9138 20.5766 11.8649 20.6169C11.8158 20.6572 11.7585 20.686 11.697 20.7015C11.6355 20.7169 11.5713 20.7186 11.5091 20.7063L11.4923 20.703C11.3953 20.6838 11.3079 20.6314 11.2453 20.5548C11.1826 20.4783 11.1484 20.3824 11.1487 20.2835C11.1509 19.2999 11.1532 17.9757 11.1548 17.9767V11.4613C11.1548 11.4491 11.152 11.4371 11.1466 11.4262C11.1413 11.4154 11.1334 11.4058 11.1238 11.3984C11.1142 11.391 11.1029 11.386 11.091 11.3836C11.0791 11.3813 11.0668 11.3817 11.055 11.3849L11.0158 11.3952C9.90903 11.686 8.92972 12.3352 8.23084 13.2414C7.53196 14.1476 7.15287 15.2597 7.15278 16.4041V17.9044C7.15299 17.9882 7.12862 18.0703 7.08269 18.1403C7.03676 18.2105 6.97128 18.2656 6.89436 18.2989C6.81743 18.3321 6.73244 18.3421 6.6499 18.3275C6.56736 18.3131 6.49088 18.2747 6.42994 18.2171C4.73001 16.5833 3.64914 14.4106 3.37145 12.0692C3.09376 9.72782 3.63644 7.36258 4.90704 5.37643C6.17763 3.39028 8.09754 1.9061 10.3397 1.17673C12.5818 0.44735 15.0074 0.517906 17.2035 1.37638C15.4744 0.554437 13.557 0.210108 11.65 0.37911C9.74308 0.548111 7.91609 1.22428 6.35857 2.33748C4.80106 3.45069 3.56979 4.96036 2.79248 6.70989C2.01518 8.45941 1.72015 10.3851 1.93802 12.2871C2.1559 14.189 2.87872 15.9981 4.03152 17.5265C5.18432 19.055 6.72508 20.2471 8.49398 20.9793C10.2629 21.7114 12.1955 21.9569 14.0912 21.6904C15.9871 21.4238 17.7769 20.6547 19.2753 19.4631C19.798 19.1024 20.2856 18.6932 20.7314 18.2409L20.7782 18.1908C20.852 18.1116 20.893 18.0074 20.8928 17.8991V3.94779C20.8928 3.94779 20.8928 3.89802 20.8928 3.83202C20.8929 3.81437 20.8871 3.79719 20.8764 3.78317C20.8656 3.76917 20.8506 3.75912 20.8335 3.75463C20.8165 3.75014 20.7983 3.75145 20.7821 3.75836C20.7659 3.76527 20.7525 3.77738 20.7438 3.79279C20.3316 4.54316 19.8586 5.25855 19.3298 5.93181Z" fill="white"/>
<path d="M46.366 17.9267C46.1033 18.2343 45.738 18.5355 45.2702 18.8303C44.8024 19.1251 44.2033 19.375 43.4727 19.58C42.7422 19.7787 41.9027 19.878 40.9543 19.878C39.7368 19.878 38.6698 19.6121 37.7535 19.0802C36.8371 18.5483 36.1258 17.7761 35.6196 16.7637C35.1133 15.7448 34.8602 14.524 34.8602 13.1014V12.2844C34.8602 10.8618 35.1037 9.64103 35.5907 8.62214C36.0842 7.60325 36.773 6.82787 37.6574 6.29599C38.5481 5.75771 39.583 5.48857 40.7621 5.48857C42.5243 5.48857 43.8572 5.9051 44.7608 6.73815C45.6643 7.57121 46.1962 8.71826 46.3564 10.1793H43.4343C43.3253 9.44238 43.069 8.88167 42.6653 8.49718C42.2616 8.11269 41.656 7.92045 40.8486 7.92045C39.9002 7.92045 39.1729 8.28892 38.6666 9.02585C38.1668 9.76279 37.9169 10.8426 37.9169 12.2652V13.1014C37.9169 14.5368 38.186 15.6198 38.7243 16.3503C39.269 17.0809 40.0732 17.4461 41.137 17.4461C42.1623 17.4461 42.8992 17.2283 43.3478 16.7925V14.476H40.8005V12.2844H46.366V17.9267Z" fill="white"/>
<path d="M50.0282 5.10408C50.5153 5.10408 50.9062 5.24506 51.2009 5.52702C51.5021 5.80257 51.6527 6.15822 51.6527 6.59397C51.6527 7.02972 51.5021 7.38858 51.2009 7.67053C50.9062 7.94608 50.5153 8.08386 50.0282 8.08386C49.5476 8.08386 49.1567 7.94608 48.8556 7.67053C48.5608 7.38858 48.4134 7.02972 48.4134 6.59397C48.4134 6.15822 48.5608 5.80257 48.8556 5.52702C49.1567 5.24506 49.5476 5.10408 50.0282 5.10408ZM48.5864 19.6858V9.28538H51.4989V19.6858H48.5864Z" fill="white"/>
<path d="M58.2274 17.4942C58.5414 17.4942 58.8106 17.4718 59.0349 17.4269V19.6089C58.535 19.7883 57.9647 19.878 57.3239 19.878C55.2861 19.878 54.2672 18.8399 54.2672 16.7637V11.4001H52.7966V9.28538H54.2672V6.70931H57.1701V9.28538H58.9195V11.4001H57.1701V16.4272C57.1701 16.8374 57.2502 17.1193 57.4104 17.2731C57.5706 17.4205 57.843 17.4942 58.2274 17.4942Z" fill="white"/>
<path d="M65.6769 19.6858V5.69042H68.6855V19.6858H65.6769Z" fill="white"/>
<path d="M76.8655 9.09314C77.91 9.09314 78.7174 9.40714 79.2877 10.0351C79.8581 10.6567 80.1432 11.6756 80.1432 13.0918V19.6858H77.2404V13.0822C77.2404 12.467 77.109 12.0409 76.8463 11.8038C76.5835 11.5603 76.1766 11.4385 75.6255 11.4385C75.2474 11.4385 74.9174 11.5186 74.6354 11.6788C74.3599 11.839 74.1356 12.0665 73.9626 12.3613V19.6858H71.0597V9.28538H73.78L73.8761 10.4869C74.2413 10.0319 74.6771 9.68589 75.1833 9.44879C75.6896 9.21169 76.2503 9.09314 76.8655 9.09314Z" fill="white"/>
<path d="M85.651 15.5237C83.1903 14.9982 81.9599 13.9377 81.9599 12.3421C81.9599 11.7525 82.1265 11.211 82.4598 10.7176C82.7994 10.2242 83.2864 9.83007 83.9208 9.5353C84.5552 9.24052 85.2954 9.09314 86.1412 9.09314C87.032 9.09314 87.8106 9.23732 88.477 9.52569C89.1434 9.80764 89.6561 10.2049 90.015 10.7176C90.3738 11.2238 90.5532 11.8038 90.5532 12.4574H87.6504C87.6504 12.0409 87.5254 11.7173 87.2755 11.4866C87.0256 11.2495 86.6443 11.1309 86.1316 11.1309C85.7087 11.1309 85.3691 11.2302 85.1127 11.4289C84.8628 11.6276 84.7379 11.8839 84.7379 12.1979C84.7379 12.4991 84.8788 12.7426 85.1608 12.9284C85.4492 13.1142 85.9362 13.2712 86.6218 13.3994C87.4421 13.5532 88.1374 13.755 88.7077 14.005C89.278 14.2485 89.7298 14.5881 90.063 15.0239C90.4026 15.4596 90.5725 16.0139 90.5725 16.6868C90.5725 17.2955 90.3898 17.8434 90.0246 18.3305C89.6657 18.8111 89.1499 19.1891 88.477 19.4647C87.8106 19.7402 87.0352 19.878 86.1509 19.878C85.2153 19.878 84.4046 19.7082 83.719 19.3686C83.0397 19.0225 82.5206 18.5804 82.1618 18.0421C81.8093 17.5038 81.6331 16.9431 81.6331 16.36H84.3726C84.3918 16.8598 84.5712 17.2315 84.9109 17.475C85.2505 17.7121 85.6863 17.8306 86.2181 17.8306C86.7116 17.8306 87.0896 17.7377 87.3524 17.5519C87.6215 17.3596 87.7561 17.1033 87.7561 16.7829C87.7561 16.5842 87.6952 16.4176 87.5735 16.2831C87.4581 16.1421 87.2466 16.0107 86.9391 15.889C86.6379 15.7672 86.2085 15.6454 85.651 15.5237Z" fill="white"/>
<path d="M93.8983 5.10408C94.3853 5.10408 94.7762 5.24506 95.071 5.52702C95.3721 5.80257 95.5227 6.15822 95.5227 6.59397C95.5227 7.02972 95.3721 7.38858 95.071 7.67053C94.7762 7.94608 94.3853 8.08386 93.8983 8.08386C93.4177 8.08386 93.0268 7.94608 92.7256 7.67053C92.4308 7.38858 92.2834 7.02972 92.2834 6.59397C92.2834 6.15822 92.4308 5.80257 92.7256 5.52702C93.0268 5.24506 93.4177 5.10408 93.8983 5.10408ZM92.4564 19.6858V9.28538H95.3689V19.6858H92.4564Z" fill="white"/>
<path d="M106.798 9.28538V19.3109C106.798 20.2465 106.586 21.0507 106.163 21.7236C105.74 22.3964 105.145 22.9059 104.376 23.2519C103.613 23.6043 102.725 23.7806 101.713 23.7806C101.008 23.7806 100.29 23.6396 99.5599 23.3576C98.8293 23.0821 98.259 22.6912 97.8489 22.1849L99.1081 20.4067C99.4285 20.7591 99.8002 21.0347 100.223 21.2333C100.646 21.432 101.104 21.5313 101.598 21.5313C102.322 21.5313 102.882 21.3359 103.28 20.945C103.683 20.5605 103.885 20.0158 103.885 19.3109V18.7918C103.245 19.516 102.418 19.878 101.405 19.878C100.56 19.878 99.8162 19.6537 99.1754 19.2052C98.541 18.7502 98.0507 18.1222 97.7047 17.3212C97.3651 16.5202 97.1953 15.6166 97.1953 14.6105V14.4087C97.1953 13.3577 97.3651 12.4318 97.7047 11.6308C98.0507 10.8297 98.541 10.2082 99.1754 9.76599C99.8162 9.31742 100.566 9.09314 101.425 9.09314C102.552 9.09314 103.43 9.47763 104.058 10.2466L104.164 9.28538H106.798ZM102.136 17.5326C102.943 17.5326 103.526 17.2347 103.885 16.6387V12.3228C103.533 11.7333 102.956 11.4385 102.155 11.4385C101.489 11.4385 100.976 11.7141 100.617 12.2652C100.265 12.8163 100.089 13.5308 100.089 14.4087V14.6105C100.089 15.4756 100.262 16.1805 100.608 16.7252C100.954 17.2635 101.463 17.5326 102.136 17.5326Z" fill="white"/>
<path d="M114.43 9.09314C115.519 9.09314 116.365 9.41675 116.968 10.064C117.576 10.7112 117.881 11.7461 117.881 13.1687V19.6858H114.978V13.1495C114.978 12.5215 114.843 12.0793 114.574 11.823C114.311 11.5667 113.908 11.4385 113.363 11.4385C112.588 11.4385 112.03 11.7205 111.69 12.2844V19.6858H108.788V4.92145H111.69V10.4004C112.036 9.97746 112.44 9.65385 112.902 9.42956C113.369 9.20528 113.879 9.09314 114.43 9.09314Z" fill="white"/>
<path d="M124.417 17.4942C124.731 17.4942 125 17.4718 125.224 17.4269V19.6089C124.725 19.7883 124.154 19.878 123.513 19.878C121.476 19.878 120.457 18.8399 120.457 16.7637V11.4001H118.986V9.28538H120.457V6.70931H123.36V9.28538H125.109V11.4001H123.36V16.4272C123.36 16.8374 123.44 17.1193 123.6 17.2731C123.76 17.4205 124.032 17.4942 124.417 17.4942Z" fill="white"/>
<path d="M130.079 15.5237C127.618 14.9982 126.387 13.9377 126.387 12.3421C126.387 11.7525 126.554 11.211 126.887 10.7176C127.227 10.2242 127.714 9.83007 128.348 9.5353C128.983 9.24052 129.723 9.09314 130.569 9.09314C131.46 9.09314 132.238 9.23732 132.905 9.52569C133.571 9.80764 134.084 10.2049 134.442 10.7176C134.801 11.2238 134.981 11.8038 134.981 12.4574H132.078C132.078 12.0409 131.953 11.7173 131.703 11.4866C131.453 11.2495 131.072 11.1309 130.559 11.1309C130.136 11.1309 129.797 11.2302 129.54 11.4289C129.29 11.6276 129.165 11.8839 129.165 12.1979C129.165 12.4991 129.306 12.7426 129.588 12.9284C129.877 13.1142 130.364 13.2712 131.049 13.3994C131.87 13.5532 132.565 13.755 133.135 14.005C133.706 14.2485 134.157 14.5881 134.491 15.0239C134.83 15.4596 135 16.0139 135 16.6868C135 17.2955 134.817 17.8434 134.452 18.3305C134.093 18.8111 133.577 19.1891 132.905 19.4647C132.238 19.7402 131.463 19.878 130.578 19.878C129.643 19.878 128.832 19.7082 128.147 19.3686C127.467 19.0225 126.948 18.5804 126.589 18.0421C126.237 17.5038 126.061 16.9431 126.061 16.36H128.8C128.819 16.8598 128.999 17.2315 129.338 17.475C129.678 17.7121 130.114 17.8306 130.646 17.8306C131.139 17.8306 131.517 17.7377 131.78 17.5519C132.049 17.3596 132.184 17.1033 132.184 16.7829C132.184 16.5842 132.123 16.4176 132.001 16.2831C131.886 16.1421 131.674 16.0107 131.367 15.889C131.065 15.7672 130.636 15.6454 130.079 15.5237Z" fill="white"/>
</svg>
