<?xml version="1.0" standalone="no"?>
<!DOCTYPE svg PUBLIC "-//W3C//DTD SVG 20010904//EN"
 "http://www.w3.org/TR/2001/REC-SVG-20010904/DTD/svg10.dtd">
<svg version="1.0" xmlns="http://www.w3.org/2000/svg"
 width="256.000000pt" height="256.000000pt" viewBox="0 0 256.000000 256.000000"
 preserveAspectRatio="xMidYMid meet">
<metadata>
Created by potrace 1.11, written by Peter Selinger 2001-2013
</metadata>
<g transform="translate(0.000000,256.000000) scale(0.100000,-0.100000)"
fill="#000000" stroke="none">
<path d="M0 1280 l0 -1280 1280 0 1280 0 0 1280 0 1280 -1280 0 -1280 0 0
-1280z m745 878 c-152 -90 -289 -244 -360 -404 -54 -121 -70 -206 -69 -364 1
-127 4 -156 27 -233 81 -264 267 -475 512 -576 120 -50 195 -65 340 -65 245 0
436 77 608 243 120 115 207 260 248 409 10 37 18 55 18 41 2 -77 -79 -292
-150 -396 -127 -186 -319 -322 -538 -381 -133 -35 -324 -37 -455 -4 -317 80
-571 318 -669 627 -124 394 26 821 372 1054 59 40 174 100 195 101 5 0 -30
-24 -79 -52z m645 29 l45 -15 -60 6 c-97 11 -235 6 -310 -12 -276 -65 -508
-298 -575 -576 -43 -181 -21 -362 64 -535 42 -84 126 -198 162 -218 31 -18 44
11 44 97 0 89 18 173 51 238 40 79 144 164 231 189 l28 8 2 -351 c3 -326 4
-352 21 -362 15 -9 21 -7 33 8 12 16 14 81 14 374 l0 354 22 6 c29 7 206 95
243 121 l30 21 5 -417 c4 -374 7 -417 22 -426 12 -8 21 -7 32 2 14 12 16 64
16 451 l0 438 93 94 c50 52 117 133 147 181 30 47 58 86 63 86 4 1 7 -245 7
-546 l0 -547 -49 -46 c-179 -168 -394 -248 -630 -237 -140 7 -207 24 -326 82
-221 109 -380 309 -435 549 -19 81 -22 115 -17 218 5 138 22 209 73 317 112
238 325 406 585 461 67 14 315 5 369 -13z m853 -460 c75 -134 137 -245 137
-248 0 -3 -29 -3 -63 -1 l-64 4 1 -138 c0 -185 -27 -309 -101 -458 -54 -110
-101 -175 -193 -267 -136 -137 -289 -224 -480 -272 -115 -29 -329 -30 -445 -3
-80 18 -189 55 -183 61 2 2 35 -6 73 -17 59 -18 96 -22 240 -22 157 0 177 2
260 28 335 103 570 342 665 676 23 82 37 276 26 353 l-7 46 -55 -21 c-30 -12
-57 -18 -60 -15 -6 6 98 537 106 537 3 0 67 -109 143 -243z"/>
</g>
</svg>
